<?xml version="1.0" standalone="no"?>
<!DOCTYPE svg PUBLIC "-//W3C//DTD SVG 20010904//EN"
 "http://www.w3.org/TR/2001/REC-SVG-20010904/DTD/svg10.dtd">
<svg version="1.0" xmlns="http://www.w3.org/2000/svg"
 width="959.000000pt" height="959.000000pt" viewBox="0 0 959.000000 959.000000"
 preserveAspectRatio="xMidYMid meet">

<g transform="translate(0.000000,959.000000) scale(0.100000,-0.100000)"
fill="#000000" stroke="none">
<path d="M0 4795 l0 -4795 4795 0 4795 0 0 4795 0 4795 -4795 0 -4795 0 0
-4795z m5304 4220 c796 -84 1527 -385 2166 -892 168 -133 503 -466 631 -628
496 -625 781 -1290 890 -2075 26 -186 37 -660 20 -865 -82 -983 -500 -1885
-1201 -2585 -333 -334 -655 -568 -1065 -775 -450 -227 -868 -354 -1390 -422
-199 -25 -760 -26 -955 0 -688 91 -1279 308 -1818 669 -953 637 -1599 1633
-1792 2761 -39 230 -53 411 -53 687 0 285 14 457 58 713 178 1028 752 1965
1592 2599 646 488 1413 772 2233 828 162 11 508 3 684 -15z"/>
<path d="M4725 8364 c-604 -34 -1146 -198 -1646 -500 -490 -295 -925 -740
-1214 -1239 -174 -302 -315 -673 -385 -1016 -149 -723 -77 -1425 214 -2108
130 -306 301 -582 525 -846 107 -127 281 -305 297 -305 12 0 14 241 14 1528 0
979 4 1558 10 1612 29 238 80 419 175 617 81 169 165 292 288 420 274 284 597
439 1012 484 142 15 367 6 513 -21 506 -92 918 -401 1142 -855 91 -185 132
-310 171 -516 21 -106 22 -152 26 -679 4 -563 4 -566 -18 -625 -30 -82 -112
-164 -194 -195 -49 -18 -74 -21 -135 -18 -130 8 -225 71 -282 186 l-33 67 -6
550 c-5 512 -7 556 -27 640 -57 243 -143 407 -287 544 -190 180 -397 256 -695
254 -263 -1 -463 -69 -637 -216 -181 -154 -307 -406 -343 -687 -7 -58 -10
-633 -8 -1839 l3 -1755 70 -38 c353 -192 852 -337 1295 -378 257 -23 638 -8
895 36 596 101 1181 374 1650 769 137 115 373 357 484 495 421 523 683 1185
742 1868 15 180 7 573 -16 737 -107 785 -455 1485 -1009 2030 l-101 99 -6
-1594 c-6 -1684 -4 -1607 -48 -1805 -34 -147 -104 -338 -169 -455 -37 -68
-141 -227 -164 -251 -7 -8 -36 -41 -63 -73 -61 -72 -181 -177 -273 -239 -210
-141 -431 -224 -696 -263 -156 -23 -479 -15 -621 16 -754 162 -1242 757 -1305
1590 -7 85 -10 329 -8 590 l3 445 29 62 c29 64 96 137 152 166 17 8 58 21 92
28 152 32 316 -59 371 -205 18 -47 19 -89 24 -571 3 -434 7 -536 21 -615 74
-408 307 -694 651 -803 230 -72 524 -61 742 28 246 100 436 312 527 585 65
197 60 39 63 2036 l3 1810 -137 66 c-390 187 -738 288 -1153 332 -140 15 -421
26 -525 20z"/>
</g>
</svg>
